<mxfile host="app.diagrams.net" modified="2022-03-10T05:22:53.433Z" agent="5.0 (Windows NT 10.0; Win64; x64) AppleWebKit/537.36 (KHTML, like Gecko) Chrome/99.0.4844.51 Safari/537.36" etag="rjLdAWxNQ-dUQdnmT44d" version="17.1.0" type="github">
  <diagram name="Page-1" id="e7e014a7-5840-1c2e-5031-d8a46d1fe8dd">
    <mxGraphModel dx="1966" dy="755" grid="1" gridSize="10" guides="1" tooltips="1" connect="1" arrows="1" fold="1" page="1" pageScale="1" pageWidth="1169" pageHeight="826" background="none" math="0" shadow="0">
      <root>
        <mxCell id="0" />
        <mxCell id="1" parent="0" />
        <mxCell id="2" value="管理员" style="swimlane;whiteSpace=wrap;strokeColor=#000000;" parent="1" vertex="1">
          <mxGeometry x="164.5" y="128" width="280" height="570" as="geometry" />
        </mxCell>
        <mxCell id="zbfvfuD1SGLedakpy9-Q-87" value="" style="edgeStyle=orthogonalEdgeStyle;rounded=0;orthogonalLoop=1;jettySize=auto;html=1;strokeColor=#000000;" edge="1" parent="2" source="7" target="zbfvfuD1SGLedakpy9-Q-51">
          <mxGeometry relative="1" as="geometry" />
        </mxCell>
        <mxCell id="7" value="后端登入" style="strokeColor=#000000;" parent="2" vertex="1">
          <mxGeometry x="74.01" y="110" width="110" height="30" as="geometry" />
        </mxCell>
        <mxCell id="9" value="" style="endArrow=open;strokeColor=#000000;endFill=1;rounded=0;entryX=0.5;entryY=0;entryDx=0;entryDy=0;" parent="2" source="7" target="zbfvfuD1SGLedakpy9-Q-47" edge="1">
          <mxGeometry relative="1" as="geometry">
            <mxPoint x="115" y="220" as="targetPoint" />
          </mxGeometry>
        </mxCell>
        <mxCell id="zbfvfuD1SGLedakpy9-Q-42" style="edgeStyle=orthogonalEdgeStyle;rounded=0;orthogonalLoop=1;jettySize=auto;html=1;entryX=0.5;entryY=0;entryDx=0;entryDy=0;strokeColor=#000000;" edge="1" parent="2" source="zbfvfuD1SGLedakpy9-Q-41" target="7">
          <mxGeometry relative="1" as="geometry" />
        </mxCell>
        <mxCell id="zbfvfuD1SGLedakpy9-Q-41" value="开始" style="rounded=1;whiteSpace=wrap;html=1;strokeColor=#000000;" vertex="1" parent="2">
          <mxGeometry x="71.64" y="62" width="114.75" height="30" as="geometry" />
        </mxCell>
        <mxCell id="zbfvfuD1SGLedakpy9-Q-57" style="edgeStyle=orthogonalEdgeStyle;rounded=0;orthogonalLoop=1;jettySize=auto;html=1;exitX=0.5;exitY=1;exitDx=0;exitDy=0;entryX=0.5;entryY=0;entryDx=0;entryDy=0;strokeColor=#000000;" edge="1" parent="2" source="zbfvfuD1SGLedakpy9-Q-47" target="zbfvfuD1SGLedakpy9-Q-52">
          <mxGeometry relative="1" as="geometry" />
        </mxCell>
        <mxCell id="zbfvfuD1SGLedakpy9-Q-58" style="edgeStyle=orthogonalEdgeStyle;rounded=0;orthogonalLoop=1;jettySize=auto;html=1;exitX=0.5;exitY=1;exitDx=0;exitDy=0;entryX=0.5;entryY=0;entryDx=0;entryDy=0;strokeColor=#000000;" edge="1" parent="2" source="zbfvfuD1SGLedakpy9-Q-47" target="zbfvfuD1SGLedakpy9-Q-53">
          <mxGeometry relative="1" as="geometry" />
        </mxCell>
        <mxCell id="zbfvfuD1SGLedakpy9-Q-59" style="edgeStyle=orthogonalEdgeStyle;rounded=0;orthogonalLoop=1;jettySize=auto;html=1;exitX=0.5;exitY=1;exitDx=0;exitDy=0;strokeColor=#000000;" edge="1" parent="2" source="zbfvfuD1SGLedakpy9-Q-47" target="zbfvfuD1SGLedakpy9-Q-51">
          <mxGeometry relative="1" as="geometry">
            <Array as="points">
              <mxPoint x="85" y="200" />
            </Array>
          </mxGeometry>
        </mxCell>
        <mxCell id="zbfvfuD1SGLedakpy9-Q-60" style="edgeStyle=orthogonalEdgeStyle;rounded=0;orthogonalLoop=1;jettySize=auto;html=1;exitX=0.5;exitY=1;exitDx=0;exitDy=0;entryX=0.5;entryY=0;entryDx=0;entryDy=0;strokeColor=#000000;" edge="1" parent="2" source="zbfvfuD1SGLedakpy9-Q-47" target="zbfvfuD1SGLedakpy9-Q-54">
          <mxGeometry relative="1" as="geometry">
            <Array as="points">
              <mxPoint x="173" y="200" />
            </Array>
          </mxGeometry>
        </mxCell>
        <mxCell id="zbfvfuD1SGLedakpy9-Q-61" style="edgeStyle=orthogonalEdgeStyle;rounded=0;orthogonalLoop=1;jettySize=auto;html=1;exitX=0;exitY=0.5;exitDx=0;exitDy=0;entryX=0.5;entryY=0;entryDx=0;entryDy=0;strokeColor=#000000;" edge="1" parent="2" source="zbfvfuD1SGLedakpy9-Q-47" target="zbfvfuD1SGLedakpy9-Q-49">
          <mxGeometry relative="1" as="geometry">
            <Array as="points">
              <mxPoint x="53" y="181" />
            </Array>
          </mxGeometry>
        </mxCell>
        <mxCell id="zbfvfuD1SGLedakpy9-Q-62" style="edgeStyle=orthogonalEdgeStyle;rounded=0;orthogonalLoop=1;jettySize=auto;html=1;exitX=1;exitY=0.5;exitDx=0;exitDy=0;entryX=0.5;entryY=0;entryDx=0;entryDy=0;strokeColor=#000000;" edge="1" parent="2" source="zbfvfuD1SGLedakpy9-Q-47" target="zbfvfuD1SGLedakpy9-Q-55">
          <mxGeometry relative="1" as="geometry">
            <Array as="points">
              <mxPoint x="205" y="181" />
            </Array>
          </mxGeometry>
        </mxCell>
        <mxCell id="zbfvfuD1SGLedakpy9-Q-47" value="管理网站信息" style="rhombus;whiteSpace=wrap;html=1;strokeColor=#000000;" vertex="1" parent="2">
          <mxGeometry x="66.51" y="162" width="125" height="38" as="geometry" />
        </mxCell>
        <mxCell id="zbfvfuD1SGLedakpy9-Q-72" style="edgeStyle=orthogonalEdgeStyle;rounded=0;orthogonalLoop=1;jettySize=auto;html=1;exitX=0.5;exitY=1;exitDx=0;exitDy=0;strokeColor=#000000;" edge="1" parent="2" source="zbfvfuD1SGLedakpy9-Q-49" target="zbfvfuD1SGLedakpy9-Q-63">
          <mxGeometry relative="1" as="geometry">
            <Array as="points">
              <mxPoint x="53" y="302" />
              <mxPoint x="129" y="302" />
            </Array>
          </mxGeometry>
        </mxCell>
        <mxCell id="zbfvfuD1SGLedakpy9-Q-49" value="动漫管理" style="rounded=0;whiteSpace=wrap;html=1;strokeColor=#000000;" vertex="1" parent="2">
          <mxGeometry x="44.26" y="222" width="17.5" height="78" as="geometry" />
        </mxCell>
        <mxCell id="zbfvfuD1SGLedakpy9-Q-71" style="edgeStyle=orthogonalEdgeStyle;rounded=0;orthogonalLoop=1;jettySize=auto;html=1;exitX=0.5;exitY=1;exitDx=0;exitDy=0;entryX=0.5;entryY=0;entryDx=0;entryDy=0;strokeColor=#000000;" edge="1" parent="2" source="zbfvfuD1SGLedakpy9-Q-55" target="zbfvfuD1SGLedakpy9-Q-63">
          <mxGeometry relative="1" as="geometry">
            <Array as="points">
              <mxPoint x="205" y="302" />
              <mxPoint x="129" y="302" />
            </Array>
          </mxGeometry>
        </mxCell>
        <mxCell id="zbfvfuD1SGLedakpy9-Q-55" value="用户管理" style="rounded=0;whiteSpace=wrap;html=1;strokeColor=#000000;" vertex="1" parent="2">
          <mxGeometry x="196.26" y="222" width="17.5" height="78" as="geometry" />
        </mxCell>
        <mxCell id="zbfvfuD1SGLedakpy9-Q-70" style="edgeStyle=orthogonalEdgeStyle;rounded=0;orthogonalLoop=1;jettySize=auto;html=1;exitX=0.5;exitY=1;exitDx=0;exitDy=0;entryX=0.5;entryY=0;entryDx=0;entryDy=0;strokeColor=#000000;" edge="1" parent="2" source="zbfvfuD1SGLedakpy9-Q-54" target="zbfvfuD1SGLedakpy9-Q-63">
          <mxGeometry relative="1" as="geometry">
            <Array as="points">
              <mxPoint x="173" y="302" />
              <mxPoint x="129" y="302" />
            </Array>
          </mxGeometry>
        </mxCell>
        <mxCell id="zbfvfuD1SGLedakpy9-Q-54" value="公告管理" style="rounded=0;whiteSpace=wrap;html=1;strokeColor=#000000;" vertex="1" parent="2">
          <mxGeometry x="164.26" y="222" width="17.5" height="78" as="geometry" />
        </mxCell>
        <mxCell id="zbfvfuD1SGLedakpy9-Q-66" style="edgeStyle=orthogonalEdgeStyle;rounded=0;orthogonalLoop=1;jettySize=auto;html=1;exitX=0.5;exitY=1;exitDx=0;exitDy=0;entryX=0.5;entryY=0;entryDx=0;entryDy=0;strokeColor=#000000;" edge="1" parent="2" source="zbfvfuD1SGLedakpy9-Q-53" target="zbfvfuD1SGLedakpy9-Q-63">
          <mxGeometry relative="1" as="geometry" />
        </mxCell>
        <mxCell id="zbfvfuD1SGLedakpy9-Q-53" value="预告管理" style="rounded=0;whiteSpace=wrap;html=1;strokeColor=#000000;" vertex="1" parent="2">
          <mxGeometry x="134.26" y="222" width="17.5" height="78" as="geometry" />
        </mxCell>
        <mxCell id="zbfvfuD1SGLedakpy9-Q-64" style="edgeStyle=orthogonalEdgeStyle;rounded=0;orthogonalLoop=1;jettySize=auto;html=1;exitX=0.5;exitY=1;exitDx=0;exitDy=0;entryX=0.5;entryY=0;entryDx=0;entryDy=0;strokeColor=#000000;" edge="1" parent="2" source="zbfvfuD1SGLedakpy9-Q-52" target="zbfvfuD1SGLedakpy9-Q-63">
          <mxGeometry relative="1" as="geometry" />
        </mxCell>
        <mxCell id="zbfvfuD1SGLedakpy9-Q-52" value="回复管理" style="rounded=0;whiteSpace=wrap;html=1;strokeColor=#000000;" vertex="1" parent="2">
          <mxGeometry x="104.26" y="222" width="17.5" height="78" as="geometry" />
        </mxCell>
        <mxCell id="zbfvfuD1SGLedakpy9-Q-67" style="edgeStyle=orthogonalEdgeStyle;rounded=0;orthogonalLoop=1;jettySize=auto;html=1;exitX=0.5;exitY=1;exitDx=0;exitDy=0;entryX=0.5;entryY=0;entryDx=0;entryDy=0;strokeColor=#000000;" edge="1" parent="2" source="zbfvfuD1SGLedakpy9-Q-51" target="zbfvfuD1SGLedakpy9-Q-63">
          <mxGeometry relative="1" as="geometry">
            <Array as="points">
              <mxPoint x="85" y="302" />
              <mxPoint x="129" y="302" />
            </Array>
          </mxGeometry>
        </mxCell>
        <mxCell id="zbfvfuD1SGLedakpy9-Q-51" value="评论管理" style="rounded=0;whiteSpace=wrap;html=1;strokeColor=#000000;" vertex="1" parent="2">
          <mxGeometry x="76.39" y="222" width="17.5" height="78" as="geometry" />
        </mxCell>
        <mxCell id="zbfvfuD1SGLedakpy9-Q-63" value="管理信息" style="rounded=0;whiteSpace=wrap;html=1;strokeColor=#000000;" vertex="1" parent="2">
          <mxGeometry x="69.01" y="322" width="120.99" height="18" as="geometry" />
        </mxCell>
        <mxCell id="3" value="普通用户" style="swimlane;whiteSpace=wrap;startSize=23;strokeColor=#000000;" parent="1" vertex="1">
          <mxGeometry x="440" y="128" width="280" height="570" as="geometry" />
        </mxCell>
        <mxCell id="zbfvfuD1SGLedakpy9-Q-75" style="edgeStyle=orthogonalEdgeStyle;rounded=0;orthogonalLoop=1;jettySize=auto;html=1;exitX=0.5;exitY=1;exitDx=0;exitDy=0;strokeColor=#000000;" edge="1" parent="3" source="18" target="zbfvfuD1SGLedakpy9-Q-73">
          <mxGeometry relative="1" as="geometry" />
        </mxCell>
        <mxCell id="18" value="浏览网站" style="strokeColor=#000000;" parent="3" vertex="1">
          <mxGeometry x="75.5" y="340" width="114.5" height="24" as="geometry" />
        </mxCell>
        <mxCell id="zbfvfuD1SGLedakpy9-Q-73" value="是否注册" style="rhombus;whiteSpace=wrap;html=1;strokeColor=#000000;" vertex="1" parent="3">
          <mxGeometry x="92.75" y="392" width="80" height="42" as="geometry" />
        </mxCell>
        <mxCell id="zbfvfuD1SGLedakpy9-Q-79" value="注册" style="strokeColor=#000000;" vertex="1" parent="3">
          <mxGeometry x="77.75" y="462" width="110" height="34" as="geometry" />
        </mxCell>
        <mxCell id="zbfvfuD1SGLedakpy9-Q-78" value="否" style="edgeStyle=orthogonalEdgeStyle;rounded=0;orthogonalLoop=1;jettySize=auto;html=1;exitX=0.5;exitY=1;exitDx=0;exitDy=0;strokeColor=#000000;entryX=0.5;entryY=0;entryDx=0;entryDy=0;" edge="1" parent="3" source="zbfvfuD1SGLedakpy9-Q-73" target="zbfvfuD1SGLedakpy9-Q-79">
          <mxGeometry x="0.2857" y="15" relative="1" as="geometry">
            <mxPoint x="130.70689655172418" y="471.9999999999999" as="targetPoint" />
            <mxPoint as="offset" />
          </mxGeometry>
        </mxCell>
        <mxCell id="4" value="注册用户" style="swimlane;whiteSpace=wrap;strokeColor=#000000;" parent="1" vertex="1">
          <mxGeometry x="720" y="128" width="280" height="570" as="geometry" />
        </mxCell>
        <mxCell id="zbfvfuD1SGLedakpy9-Q-92" style="edgeStyle=orthogonalEdgeStyle;rounded=0;orthogonalLoop=1;jettySize=auto;html=1;exitX=0.5;exitY=1;exitDx=0;exitDy=0;entryX=0.5;entryY=0;entryDx=0;entryDy=0;strokeColor=#000000;" edge="1" parent="4" source="zbfvfuD1SGLedakpy9-Q-82" target="zbfvfuD1SGLedakpy9-Q-91">
          <mxGeometry relative="1" as="geometry" />
        </mxCell>
        <mxCell id="zbfvfuD1SGLedakpy9-Q-82" value="登录" style="strokeColor=#000000;" vertex="1" parent="4">
          <mxGeometry x="82.63" y="401" width="110" height="24" as="geometry" />
        </mxCell>
        <mxCell id="zbfvfuD1SGLedakpy9-Q-88" value="结束" style="rounded=1;whiteSpace=wrap;html=1;strokeColor=#000000;" vertex="1" parent="4">
          <mxGeometry x="80.25" y="502" width="114.75" height="30" as="geometry" />
        </mxCell>
        <mxCell id="zbfvfuD1SGLedakpy9-Q-94" style="edgeStyle=orthogonalEdgeStyle;rounded=0;orthogonalLoop=1;jettySize=auto;html=1;exitX=0.5;exitY=1;exitDx=0;exitDy=0;entryX=0.5;entryY=0;entryDx=0;entryDy=0;strokeColor=#000000;" edge="1" parent="4" source="zbfvfuD1SGLedakpy9-Q-91" target="zbfvfuD1SGLedakpy9-Q-88">
          <mxGeometry relative="1" as="geometry" />
        </mxCell>
        <mxCell id="zbfvfuD1SGLedakpy9-Q-91" value="发表评论" style="strokeColor=#000000;" vertex="1" parent="4">
          <mxGeometry x="82.63" y="452" width="110" height="24" as="geometry" />
        </mxCell>
        <mxCell id="20" value="" style="endArrow=open;strokeColor=#000000;endFill=1;rounded=0;exitX=0.5;exitY=1;exitDx=0;exitDy=0;entryX=0;entryY=0.5;entryDx=0;entryDy=0;" parent="1" source="zbfvfuD1SGLedakpy9-Q-63" target="18" edge="1">
          <mxGeometry relative="1" as="geometry">
            <mxPoint x="397.3969072164948" y="549.9999999999999" as="sourcePoint" />
            <Array as="points">
              <mxPoint x="294" y="480" />
            </Array>
          </mxGeometry>
        </mxCell>
        <mxCell id="37" value="是" style="edgeStyle=none;strokeColor=#000000;endArrow=open;endFill=1;rounded=0;exitX=1;exitY=0.5;exitDx=0;exitDy=0;" parent="1" target="zbfvfuD1SGLedakpy9-Q-82" edge="1" source="zbfvfuD1SGLedakpy9-Q-73">
          <mxGeometry x="-0.0786" y="11" width="100" height="100" relative="1" as="geometry">
            <mxPoint x="694.5" y="557.5" as="sourcePoint" />
            <mxPoint x="850" y="610" as="targetPoint" />
            <mxPoint as="offset" />
          </mxGeometry>
        </mxCell>
        <mxCell id="zbfvfuD1SGLedakpy9-Q-81" style="edgeStyle=orthogonalEdgeStyle;rounded=0;orthogonalLoop=1;jettySize=auto;html=1;exitX=1;exitY=0.5;exitDx=0;exitDy=0;entryX=0;entryY=0.5;entryDx=0;entryDy=0;strokeColor=#000000;" edge="1" parent="1" source="zbfvfuD1SGLedakpy9-Q-79" target="zbfvfuD1SGLedakpy9-Q-82">
          <mxGeometry relative="1" as="geometry">
            <mxPoint x="809.5" y="571" as="targetPoint" />
            <Array as="points">
              <mxPoint x="680" y="607" />
              <mxPoint x="680" y="541" />
            </Array>
          </mxGeometry>
        </mxCell>
      </root>
    </mxGraphModel>
  </diagram>
</mxfile>
